<?xml version="1.0" encoding="UTF-8" standalone="no"?>
<!DOCTYPE svg PUBLIC "-//W3C//DTD SVG 1.1//EN"
 "http://www.w3.org/Graphics/SVG/1.1/DTD/svg11.dtd">
<!-- Generated by graphviz version 16.1.0 (20260904.0139)
 -->
<!-- Pages: 1 -->
<svg width="1473pt" height="310pt"
 viewBox="0.00 0.00 1473.00 310.00" xmlns="http://www.w3.org/2000/svg" xmlns:xlink="http://www.w3.org/1999/xlink">
<g id="graph0" class="graph" transform="scale(1 1) rotate(0) translate(4 305.5)">
<polygon fill="#ffffff" stroke="none" points="-4,4 -4,-305.5 1469.25,-305.5 1469.25,4 -4,4"/>
<!-- HV_A -->
<g id="node1" class="node">
<title>HV_A</title>
<polygon fill="#ffffff" stroke="black" points="398.5,-270.75 0,-270.75 0,-175.75 398.5,-175.75 398.5,-270.75"/>
<polygon fill="none" stroke="black" points="0,-247 0,-270.75 398.5,-270.75 398.5,-247 0,-247"/>
<text xml:space="preserve" text-anchor="start" x="181.62" y="-254" font-family="arial" font-size="14.00">HV_A</text>
<polygon fill="none" stroke="black" points="0,-223.25 0,-247 360.5,-247 360.5,-223.25 0,-223.25"/>
<text xml:space="preserve" text-anchor="start" x="4" y="-230.25" font-family="arial" font-size="14.00">CobraPin J13, Bank A fused HV feed (shared bus terminal)</text>
<polygon fill="none" stroke="black" points="360.5,-223.25 360.5,-247 398.5,-247 398.5,-223.25 360.5,-223.25"/>
<text xml:space="preserve" text-anchor="start" x="364.5" y="-230.25" font-family="arial" font-size="14.00">2&#45;pin</text>
<polygon fill="none" stroke="black" points="0,-199.5 0,-223.25 213.12,-223.25 213.12,-199.5 0,-199.5"/>
<text xml:space="preserve" text-anchor="start" x="88.94" y="-206.5" font-family="arial" font-size="14.00">HV_A</text>
<polygon fill="none" stroke="black" points="213.12,-199.5 213.12,-223.25 398.5,-223.25 398.5,-199.5 213.12,-199.5"/>
<text xml:space="preserve" text-anchor="start" x="302.06" y="-206.5" font-family="arial" font-size="14.00">1</text>
<polygon fill="none" stroke="black" points="0,-175.75 0,-199.5 213.12,-199.5 213.12,-175.75 0,-175.75"/>
<text xml:space="preserve" text-anchor="start" x="88.94" y="-182.75" font-family="arial" font-size="14.00">HV_A</text>
<polygon fill="none" stroke="black" points="213.12,-175.75 213.12,-199.5 398.5,-199.5 398.5,-175.75 213.12,-175.75"/>
<text xml:space="preserve" text-anchor="start" x="302.06" y="-182.75" font-family="arial" font-size="14.00">2</text>
</g>
<!-- W&#45;HV -->
<g id="node4" class="node">
<title>W&#45;HV</title>
<polygon fill="#ffffff" stroke="black" points="1043.5,-301.5 608.5,-301.5 608.5,-163 1043.5,-163 1043.5,-301.5"/>
<polygon fill="none" stroke="black" points="608.5,-277.75 608.5,-301.5 1043.5,-301.5 1043.5,-277.75 608.5,-277.75"/>
<text xml:space="preserve" text-anchor="start" x="808" y="-284.75" font-family="arial" font-size="14.00">W&#45;HV</text>
<polygon fill="none" stroke="black" points="608.5,-254 608.5,-277.75 961.5,-277.75 961.5,-254 608.5,-254"/>
<text xml:space="preserve" text-anchor="start" x="612.5" y="-261" font-family="arial" font-size="14.00">HV_A feed (brown, per docs/opp&#45;hardware&#45;reference.md)</text>
<polygon fill="none" stroke="black" points="961.5,-254 961.5,-277.75 983.75,-277.75 983.75,-254 961.5,-254"/>
<text xml:space="preserve" text-anchor="start" x="965.5" y="-261" font-family="arial" font-size="14.00">2x</text>
<polygon fill="none" stroke="black" points="983.75,-254 983.75,-277.75 1043.5,-277.75 1043.5,-254 983.75,-254"/>
<text xml:space="preserve" text-anchor="start" x="987.75" y="-261" font-family="arial" font-size="14.00">18 AWG</text>
<text xml:space="preserve" text-anchor="start" x="672.5" y="-239.25" font-family="arial" font-size="14.00"> </text>
<text xml:space="preserve" text-anchor="start" x="631.62" y="-219.5" font-family="arial" font-size="14.00">HV_A:1:HV_A</text>
<text xml:space="preserve" text-anchor="start" x="763.38" y="-219.5" font-family="arial" font-size="14.00"> &#160;&#160;&#160;&#160;1:BN &#160;&#160;&#160;</text>
<text xml:space="preserve" text-anchor="start" x="877.5" y="-219.5" font-family="arial" font-size="14.00">COILS:1:c&#45;flipper&#45;left +</text>
<polygon fill="#000000" stroke="none" points="608.5,-212.5 608.5,-214.5 1043.5,-214.5 1043.5,-212.5 608.5,-212.5"/>
<polygon fill="#895956" stroke="none" points="608.5,-210.5 608.5,-212.5 1043.5,-212.5 1043.5,-210.5 608.5,-210.5"/>
<polygon fill="#000000" stroke="none" points="608.5,-208.5 608.5,-210.5 1043.5,-210.5 1043.5,-208.5 608.5,-208.5"/>
<text xml:space="preserve" text-anchor="start" x="631.62" y="-193.75" font-family="arial" font-size="14.00">HV_A:2:HV_A</text>
<text xml:space="preserve" text-anchor="start" x="763.38" y="-193.75" font-family="arial" font-size="14.00"> &#160;&#160;&#160;&#160;2:BN &#160;&#160;&#160;</text>
<text xml:space="preserve" text-anchor="start" x="873.38" y="-193.75" font-family="arial" font-size="14.00">COILS:3:c&#45;flipper&#45;right +</text>
<polygon fill="#000000" stroke="none" points="608.5,-186.75 608.5,-188.75 1043.5,-188.75 1043.5,-186.75 608.5,-186.75"/>
<polygon fill="#895956" stroke="none" points="608.5,-184.75 608.5,-186.75 1043.5,-186.75 1043.5,-184.75 608.5,-184.75"/>
<polygon fill="#000000" stroke="none" points="608.5,-182.75 608.5,-184.75 1043.5,-184.75 1043.5,-182.75 608.5,-182.75"/>
<text xml:space="preserve" text-anchor="start" x="672.5" y="-168" font-family="arial" font-size="14.00"> </text>
</g>
<!-- HV_A&#45;&#45;W&#45;HV -->
<g id="edge1" class="edge">
<title>HV_A:e&#45;&#45;W&#45;HV:w</title>
<path fill="none" stroke="#000000" stroke-width="2" d="M398.5,-209.38C491.4,-209.38 514.62,-209.5 607.5,-209.5"/>
<path fill="none" stroke="#895956" stroke-width="2" d="M398.5,-211.38C491.39,-211.38 514.61,-211.5 607.5,-211.5"/>
<path fill="none" stroke="#000000" stroke-width="2" d="M398.5,-213.37C491.38,-213.37 514.6,-213.5 607.5,-213.5"/>
</g>
<!-- HV_A&#45;&#45;W&#45;HV -->
<g id="edge3" class="edge">
<title>HV_A:e&#45;&#45;W&#45;HV:w</title>
<path fill="none" stroke="#000000" stroke-width="2" d="M398.5,-185.63C491.23,-185.63 514.45,-183.76 607.5,-183.75"/>
<path fill="none" stroke="#895956" stroke-width="2" d="M398.5,-187.62C491.39,-187.62 514.61,-185.75 607.5,-185.75"/>
<path fill="none" stroke="#000000" stroke-width="2" d="M398.5,-189.62C491.55,-189.62 514.77,-187.74 607.5,-187.75"/>
</g>
<!-- COILS -->
<g id="node2" class="node">
<title>COILS</title>
<polygon fill="#ffffff" stroke="black" points="1465.25,-211.5 1253.5,-211.5 1253.5,-69 1465.25,-69 1465.25,-211.5"/>
<polygon fill="none" stroke="black" points="1253.5,-187.75 1253.5,-211.5 1465.25,-211.5 1465.25,-187.75 1253.5,-187.75"/>
<text xml:space="preserve" text-anchor="start" x="1338.75" y="-194.75" font-family="arial" font-size="14.00">COILS</text>
<polygon fill="none" stroke="black" points="1253.5,-164 1253.5,-187.75 1427.25,-187.75 1427.25,-164 1253.5,-164"/>
<text xml:space="preserve" text-anchor="start" x="1257.5" y="-171" font-family="arial" font-size="14.00">Flipper coil pack (left / right)</text>
<polygon fill="none" stroke="black" points="1427.25,-164 1427.25,-187.75 1465.25,-187.75 1465.25,-164 1427.25,-164"/>
<text xml:space="preserve" text-anchor="start" x="1431.25" y="-171" font-family="arial" font-size="14.00">4&#45;pin</text>
<polygon fill="none" stroke="black" points="1253.5,-140.25 1253.5,-164 1312.5,-164 1312.5,-140.25 1253.5,-140.25"/>
<text xml:space="preserve" text-anchor="start" x="1279.25" y="-147.25" font-family="arial" font-size="14.00">1</text>
<polygon fill="none" stroke="black" points="1312.5,-140.25 1312.5,-164 1465.25,-164 1465.25,-140.25 1312.5,-140.25"/>
<text xml:space="preserve" text-anchor="start" x="1347.62" y="-147.25" font-family="arial" font-size="14.00">c&#45;flipper&#45;left +</text>
<polygon fill="none" stroke="black" points="1253.5,-116.5 1253.5,-140.25 1312.5,-140.25 1312.5,-116.5 1253.5,-116.5"/>
<text xml:space="preserve" text-anchor="start" x="1279.25" y="-123.5" font-family="arial" font-size="14.00">2</text>
<polygon fill="none" stroke="black" points="1312.5,-116.5 1312.5,-140.25 1465.25,-140.25 1465.25,-116.5 1312.5,-116.5"/>
<text xml:space="preserve" text-anchor="start" x="1342.38" y="-123.5" font-family="arial" font-size="14.00">c&#45;flipper&#45;left drv</text>
<polygon fill="none" stroke="black" points="1253.5,-92.75 1253.5,-116.5 1312.5,-116.5 1312.5,-92.75 1253.5,-92.75"/>
<text xml:space="preserve" text-anchor="start" x="1279.25" y="-99.75" font-family="arial" font-size="14.00">3</text>
<polygon fill="none" stroke="black" points="1312.5,-92.75 1312.5,-116.5 1465.25,-116.5 1465.25,-92.75 1312.5,-92.75"/>
<text xml:space="preserve" text-anchor="start" x="1343.5" y="-99.75" font-family="arial" font-size="14.00">c&#45;flipper&#45;right +</text>
<polygon fill="none" stroke="black" points="1253.5,-69 1253.5,-92.75 1312.5,-92.75 1312.5,-69 1253.5,-69"/>
<text xml:space="preserve" text-anchor="start" x="1279.25" y="-76" font-family="arial" font-size="14.00">4</text>
<polygon fill="none" stroke="black" points="1312.5,-69 1312.5,-92.75 1465.25,-92.75 1465.25,-69 1312.5,-69"/>
<text xml:space="preserve" text-anchor="start" x="1338.25" y="-76" font-family="arial" font-size="14.00">c&#45;flipper&#45;right drv</text>
</g>
<!-- DRIVER -->
<g id="node3" class="node">
<title>DRIVER</title>
<polygon fill="#ffffff" stroke="black" points="382.38,-107.75 16.12,-107.75 16.12,-12.75 382.38,-12.75 382.38,-107.75"/>
<polygon fill="none" stroke="black" points="16.12,-84 16.12,-107.75 382.38,-107.75 382.38,-84 16.12,-84"/>
<text xml:space="preserve" text-anchor="start" x="173.75" y="-91" font-family="arial" font-size="14.00">DRIVER</text>
<polygon fill="none" stroke="black" points="16.12,-60.25 16.12,-84 344.38,-84 344.38,-60.25 16.12,-60.25"/>
<text xml:space="preserve" text-anchor="start" x="20.12" y="-67.25" font-family="arial" font-size="14.00">CobraPin chain0&#45;0x20 solenoid driver header, Bank A</text>
<polygon fill="none" stroke="black" points="344.38,-60.25 344.38,-84 382.38,-84 382.38,-60.25 344.38,-60.25"/>
<text xml:space="preserve" text-anchor="start" x="348.38" y="-67.25" font-family="arial" font-size="14.00">2&#45;pin</text>
<polygon fill="none" stroke="black" points="16.12,-36.5 16.12,-60.25 211.25,-60.25 211.25,-36.5 16.12,-36.5"/>
<text xml:space="preserve" text-anchor="start" x="97.94" y="-43.5" font-family="arial" font-size="14.00">0&#45;0&#45;8</text>
<polygon fill="none" stroke="black" points="211.25,-36.5 211.25,-60.25 382.38,-60.25 382.38,-36.5 211.25,-36.5"/>
<text xml:space="preserve" text-anchor="start" x="293.06" y="-43.5" font-family="arial" font-size="14.00">1</text>
<polygon fill="none" stroke="black" points="16.12,-12.75 16.12,-36.5 211.25,-36.5 211.25,-12.75 16.12,-12.75"/>
<text xml:space="preserve" text-anchor="start" x="97.94" y="-19.75" font-family="arial" font-size="14.00">0&#45;0&#45;9</text>
<polygon fill="none" stroke="black" points="211.25,-12.75 211.25,-36.5 382.38,-36.5 382.38,-12.75 211.25,-12.75"/>
<text xml:space="preserve" text-anchor="start" x="293.06" y="-19.75" font-family="arial" font-size="14.00">2</text>
</g>
<!-- W&#45;DRV -->
<g id="node5" class="node">
<title>W&#45;DRV</title>
<polygon fill="#ffffff" stroke="black" points="1109.5,-138.5 542.5,-138.5 542.5,0 1109.5,0 1109.5,-138.5"/>
<polygon fill="none" stroke="black" points="542.5,-114.75 542.5,-138.5 1109.5,-138.5 1109.5,-114.75 542.5,-114.75"/>
<text xml:space="preserve" text-anchor="start" x="803.12" y="-121.75" font-family="arial" font-size="14.00">W&#45;DRV</text>
<polygon fill="none" stroke="black" points="542.5,-91 542.5,-114.75 1027.5,-114.75 1027.5,-91 542.5,-91"/>
<text xml:space="preserve" text-anchor="start" x="546.5" y="-98" font-family="arial" font-size="14.00">Driver signal (exact color not confirmed &#45; see docs/opp&#45;hardware&#45;reference.md)</text>
<polygon fill="none" stroke="black" points="1027.5,-91 1027.5,-114.75 1049.75,-114.75 1049.75,-91 1027.5,-91"/>
<text xml:space="preserve" text-anchor="start" x="1031.5" y="-98" font-family="arial" font-size="14.00">2x</text>
<polygon fill="none" stroke="black" points="1049.75,-91 1049.75,-114.75 1109.5,-114.75 1109.5,-91 1049.75,-91"/>
<text xml:space="preserve" text-anchor="start" x="1053.75" y="-98" font-family="arial" font-size="14.00">18 AWG</text>
<text xml:space="preserve" text-anchor="start" x="634.5" y="-76.25" font-family="arial" font-size="14.00"> </text>
<text xml:space="preserve" text-anchor="start" x="587.62" y="-56.5" font-family="arial" font-size="14.00">DRIVER:1:0&#45;0&#45;8</text>
<text xml:space="preserve" text-anchor="start" x="775.38" y="-56.5" font-family="arial" font-size="14.00"> &#160;&#160;&#160;&#160;1 &#160;&#160;&#160;</text>
<text xml:space="preserve" text-anchor="start" x="911" y="-56.5" font-family="arial" font-size="14.00">COILS:2:c&#45;flipper&#45;left drv</text>
<polygon fill="#000000" stroke="none" points="542.5,-49.5 542.5,-51.5 1109.5,-51.5 1109.5,-49.5 542.5,-49.5"/>
<polygon fill="#ffffff" stroke="none" points="542.5,-47.5 542.5,-49.5 1109.5,-49.5 1109.5,-47.5 542.5,-47.5"/>
<polygon fill="#000000" stroke="none" points="542.5,-45.5 542.5,-47.5 1109.5,-47.5 1109.5,-45.5 542.5,-45.5"/>
<text xml:space="preserve" text-anchor="start" x="587.62" y="-30.75" font-family="arial" font-size="14.00">DRIVER:2:0&#45;0&#45;9</text>
<text xml:space="preserve" text-anchor="start" x="775.38" y="-30.75" font-family="arial" font-size="14.00"> &#160;&#160;&#160;&#160;2 &#160;&#160;&#160;</text>
<text xml:space="preserve" text-anchor="start" x="906.88" y="-30.75" font-family="arial" font-size="14.00">COILS:4:c&#45;flipper&#45;right drv</text>
<polygon fill="#000000" stroke="none" points="542.5,-23.75 542.5,-25.75 1109.5,-25.75 1109.5,-23.75 542.5,-23.75"/>
<polygon fill="#ffffff" stroke="none" points="542.5,-21.75 542.5,-23.75 1109.5,-23.75 1109.5,-21.75 542.5,-21.75"/>
<polygon fill="#000000" stroke="none" points="542.5,-19.75 542.5,-21.75 1109.5,-21.75 1109.5,-19.75 542.5,-19.75"/>
<text xml:space="preserve" text-anchor="start" x="634.5" y="-5" font-family="arial" font-size="14.00"> </text>
</g>
<!-- DRIVER&#45;&#45;W&#45;DRV -->
<g id="edge5" class="edge">
<title>DRIVER:e&#45;&#45;W&#45;DRV:w</title>
<path fill="none" stroke="#000000" stroke-width="2" d="M383.38,-46.38C454.11,-46.38 471.79,-46.5 542.5,-46.5"/>
<path fill="none" stroke="#ffffff" stroke-width="2" d="M383.38,-48.38C454.1,-48.37 471.78,-48.5 542.5,-48.5"/>
<path fill="none" stroke="#000000" stroke-width="2" d="M383.38,-50.37C454.08,-50.37 471.76,-50.5 542.5,-50.5"/>
</g>
<!-- DRIVER&#45;&#45;W&#45;DRV -->
<g id="edge7" class="edge">
<title>DRIVER:e&#45;&#45;W&#45;DRV:w</title>
<path fill="none" stroke="#000000" stroke-width="2" d="M383.38,-22.63C453.89,-22.64 471.56,-20.76 542.5,-20.75"/>
<path fill="none" stroke="#ffffff" stroke-width="2" d="M383.38,-24.62C454.1,-24.63 471.77,-22.75 542.5,-22.75"/>
<path fill="none" stroke="#000000" stroke-width="2" d="M383.38,-26.62C454.31,-26.61 471.98,-24.74 542.5,-24.75"/>
</g>
<!-- W&#45;HV&#45;&#45;COILS -->
<g id="edge2" class="edge">
<title>W&#45;HV:e&#45;&#45;COILS:w</title>
<path fill="none" stroke="#000000" stroke-width="2" d="M1044.5,-209.5C1139.13,-210.98 1155,-151.61 1253.5,-150.13"/>
<path fill="none" stroke="#895956" stroke-width="2" d="M1044.5,-211.5C1141.06,-211.5 1156.94,-152.13 1253.5,-152.12"/>
<path fill="none" stroke="#000000" stroke-width="2" d="M1044.5,-213.5C1143,-212.02 1158.87,-152.64 1253.5,-154.12"/>
</g>
<!-- W&#45;HV&#45;&#45;COILS -->
<g id="edge4" class="edge">
<title>W&#45;HV:e&#45;&#45;COILS:w</title>
<path fill="none" stroke="#000000" stroke-width="2" d="M1044.5,-183.75C1142.16,-185.51 1151.87,-104.39 1253.5,-102.63"/>
<path fill="none" stroke="#895956" stroke-width="2" d="M1044.5,-185.75C1144.14,-185.75 1153.86,-104.62 1253.5,-104.62"/>
<path fill="none" stroke="#000000" stroke-width="2" d="M1044.5,-187.75C1146.13,-185.99 1155.84,-104.86 1253.5,-106.62"/>
</g>
<!-- W&#45;DRV&#45;&#45;COILS -->
<g id="edge6" class="edge">
<title>W&#45;DRV:e&#45;&#45;COILS:w</title>
<path fill="none" stroke="#000000" stroke-width="2" d="M1109.5,-46.5C1184.69,-48.56 1182.31,-128.43 1253.5,-126.38"/>
<path fill="none" stroke="#ffffff" stroke-width="2" d="M1109.5,-48.5C1182.69,-48.5 1180.31,-128.38 1253.5,-128.38"/>
<path fill="none" stroke="#000000" stroke-width="2" d="M1109.5,-50.5C1180.69,-48.44 1178.31,-128.32 1253.5,-130.37"/>
</g>
<!-- W&#45;DRV&#45;&#45;COILS -->
<g id="edge8" class="edge">
<title>W&#45;DRV:e&#45;&#45;COILS:w</title>
<path fill="none" stroke="#000000" stroke-width="2" d="M1109.5,-20.75C1180.51,-22.55 1186.47,-80.67 1253.5,-78.88"/>
<path fill="none" stroke="#ffffff" stroke-width="2" d="M1109.5,-22.75C1178.52,-22.75 1184.48,-80.88 1253.5,-80.88"/>
<path fill="none" stroke="#000000" stroke-width="2" d="M1109.5,-24.75C1176.53,-22.95 1182.49,-81.08 1253.5,-82.87"/>
</g>
</g>
</svg>
